<?xml version="1.0" standalone="no"?>
<!DOCTYPE svg PUBLIC "-//W3C//DTD SVG 20010904//EN"
 "http://www.w3.org/TR/2001/REC-SVG-20010904/DTD/svg10.dtd">
<svg version="1.0" xmlns="http://www.w3.org/2000/svg"
 width="283.000000pt" height="244.000000pt" viewBox="0 0 283.000000 244.000000"
 preserveAspectRatio="xMidYMid meet">
<metadata>
Created by potrace 1.10, written by Peter Selinger 2001-2011
</metadata>
<g transform="translate(0.000000,244.000000) scale(0.050000,-0.050000)"
fill="#000000" stroke="none">
<path d="M2541 4171 c-330 -63 -560 -183 -561 -292 0 -109 86 -127 236 -51
1289 653 2601 -950 1708 -2086 -111 -142 -115 -144 -133 -48 -75 396 -516 607
-1144 546 -438 -42 -668 -194 -763 -503 l-37 -121 -81 92 c-335 380 -411 985
-185 1469 64 137 73 201 35 239 -163 163 -384 -313 -383 -826 4 -1472 1775
-2161 2781 -1082 1035 1109 18 2947 -1473 2663z m742 -2208 c146 -57 245 -165
288 -312 52 -181 41 -210 -121 -295 -400 -211 -938 -195 -1315 38 -144 89 -55
396 152 524 183 113 756 139 996 45z"/>
<path d="M2643 3562 c-350 -121 -480 -582 -247 -877 246 -310 760 -252 936
107 220 450 -213 934 -689 770z m356 -231 c150 -78 213 -330 117 -471 -194
-286 -606 -163 -606 180 0 269 247 416 489 291z"/>
</g>
</svg>
