<svg width="901" height="1038" viewBox="0 0 901 1038" fill="none" xmlns="http://www.w3.org/2000/svg">
<path d="M439.467 3.36085C429.6 8.69418 426.667 10.2942 422.267 13.0942C420.133 14.5609 417.333 16.1609 416.267 16.6942C415.2 17.2275 405.333 22.9609 394.533 29.3609C383.6 35.7609 374.533 41.0942 374.267 41.0942C374 41.0942 366.267 45.6275 356.933 51.0942C347.733 56.5609 339.867 61.0942 339.6 61.0942C339.333 61.0942 333.067 64.6942 325.733 69.0942C318.267 73.4942 312 77.0942 311.733 77.0942C311.2 77.0942 272.133 99.8942 268.267 102.428C267.2 103.228 265.333 104.161 264.267 104.694C263.2 105.228 254.8 110.028 245.733 115.361C236.8 120.694 229.2 125.094 228.933 125.094C228.667 125.094 219.467 130.428 208.267 137.094C197.067 143.628 187.867 149.094 187.6 149.094C187.333 149.094 179.2 153.761 169.467 159.494C159.6 165.228 142.933 174.961 132.267 181.094C103.333 197.761 79.8667 211.228 64.2667 220.294C56.5333 224.828 48.8 229.228 46.9333 230.161C34.4 236.694 4.66667 255.761 2.53333 258.561C0.133333 261.894 0 268.561 0 517.228C0 695.094 0.4 773.494 1.46667 776.028C2.8 779.494 10 784.961 21.6 791.228C24.1333 792.694 27.7333 794.828 29.6 795.894C36.9333 800.561 76.1333 823.228 84.2667 827.494C89.0667 830.028 101.333 837.094 111.6 843.094C121.867 849.228 132.533 855.361 135.467 856.961C146.8 863.361 195.867 892.294 199.2 894.561C201.2 896.028 203.067 897.094 203.467 897.094C203.867 897.094 213.6 902.694 225.2 909.628C245.467 921.628 248.8 923.494 266.267 933.094C280.8 941.094 294.267 948.694 313.067 959.894C329.067 969.361 348.8 980.828 363.867 989.228C366.133 990.561 381.2 999.361 397.2 1008.83C436.267 1031.89 445.867 1037.09 449.733 1037.09C451.6 1037.09 457.733 1034.43 463.467 1031.09C469.333 1027.76 474.133 1025.09 474.4 1025.09C474.533 1025.09 482.4 1020.56 491.733 1014.96C501.2 1009.36 511.333 1003.49 514.4 1001.76C521.2 998.028 550.133 981.228 573.333 967.494C583.067 961.761 591.333 957.094 591.6 957.094C591.867 957.094 599.733 952.561 608.933 947.094C618.267 941.628 626 937.094 626.267 937.094C626.533 937.094 637.2 930.828 650.267 923.094C663.2 915.361 674 909.094 674.267 909.094C674.533 909.094 683.733 903.628 694.933 897.094C706.133 890.428 715.333 885.094 715.6 885.094C715.733 885.094 726.533 878.828 739.467 871.094C752.4 863.361 763.333 857.094 763.6 857.094C763.867 857.094 768.8 854.294 774.533 850.961C791.6 840.694 819.067 825.094 819.867 825.094C820.133 825.094 822.933 823.361 826 821.361C829.067 819.228 844.533 810.161 860.267 801.094C894.8 781.494 897.067 779.894 898.933 773.361C899.867 770.028 900.267 686.561 900.267 517.494C900.267 291.628 900 265.894 898.133 261.228C896.267 256.428 894 254.828 875.467 243.761C864.133 237.094 852 230.161 848.533 228.161C842.133 224.694 833.6 219.761 798.933 199.361C788.267 193.228 777.2 186.694 774.267 185.094C762.533 178.428 715.467 151.361 714.267 150.428C713.6 149.894 710 147.894 706.533 145.894C696.4 140.294 646.8 111.761 641.333 108.161C638.533 106.561 636 105.094 635.6 105.094C635.2 105.094 633.2 104.028 631.2 102.561C627.733 100.294 600.4 84.2942 586.267 76.4275C582.667 74.4275 577.067 71.0942 573.733 69.0942C570.267 67.2275 566.667 65.2275 565.6 64.6942C564.533 64.1609 562.667 63.2275 561.6 62.4275C557.733 59.8942 525.6 41.0942 525.067 41.0942C524.667 41.0942 514.133 34.8275 501.333 27.3609C450.267 -3.17248 450.933 -2.90582 439.467 3.36085ZM463.467 33.3609C467.867 35.7609 474.133 39.3609 477.2 41.3609C480.267 43.3609 483.067 45.0942 483.333 45.0942C483.733 45.0942 495.067 51.4942 508.533 59.2275C521.867 67.0942 546.133 80.9609 562.267 90.1609C594.133 108.294 596.267 109.761 596.267 113.094C596.267 115.361 591.067 118.561 544.267 145.894C485.6 180.028 485.067 180.428 483.467 185.228C480.533 193.894 487.6 202.561 496.133 200.428C500.267 199.361 525.6 184.961 594.267 144.428C618.267 130.294 620.667 129.094 625.2 129.094C629.333 129.094 628.533 128.694 678.933 157.761C699.067 169.361 727.067 185.494 740.933 193.494C754.933 201.361 767.733 209.361 769.467 211.094C773.733 215.228 772.667 216.561 757.067 225.228C750.4 229.094 742.8 233.494 740.267 235.094C735.2 238.294 704.533 256.161 694.933 261.494C691.6 263.361 681.2 269.361 671.733 274.961C662.4 280.561 654.533 285.094 654.267 285.094C654 285.094 647.867 288.694 640.667 292.961C633.333 297.228 617.467 306.561 605.467 313.494C593.333 320.428 581.467 327.361 578.933 328.828C576.4 330.428 572.8 332.428 570.933 333.494C569.067 334.428 560.267 339.494 551.333 344.828C537.467 353.094 534.933 355.094 533.6 358.961C531.6 365.094 534.533 372.561 539.6 373.894C545.467 375.361 549.6 373.628 571.6 360.694C608.8 338.961 625.733 329.094 626.133 329.094C626.4 329.094 635.733 323.628 646.8 317.094C658 310.428 667.333 305.094 667.6 305.094C667.867 305.094 673.467 301.894 679.867 298.028C686.267 294.161 694.933 289.094 698.933 286.828C706 283.094 724.267 272.428 769.6 245.761C799.333 228.428 799.2 228.428 805.333 231.361C808 232.561 814.667 236.161 820 239.361C825.467 242.561 830 245.094 830.267 245.094C830.667 245.094 856.667 260.161 860.267 262.428C861.333 263.228 863.467 264.294 865.067 264.961C866.533 265.628 869.6 267.761 872 269.761L876.267 273.361V315.361C876.267 339.361 875.733 358.294 874.933 359.628C874.267 360.961 868.133 365.228 861.333 369.094C844.8 378.428 825.6 389.494 807.2 400.294C798.8 405.094 791.867 409.094 791.467 409.094C791.2 409.094 784.533 412.961 776.667 417.494C768.667 422.161 748.8 433.761 732.267 443.094C663.2 482.428 658.933 485.361 658.933 492.694C658.933 496.828 665.733 503.761 669.6 503.761C672.667 503.761 684.267 498.294 693.2 492.694C696 490.961 701.2 487.894 704.933 485.761C713.333 481.094 751.067 459.361 764.667 451.228C770.4 447.894 775.467 445.094 775.733 445.094C776 445.094 778.533 443.628 781.333 442.028C786 439.094 836.933 409.494 844.267 405.494C846.133 404.428 850.667 401.761 854.267 399.628C858 397.494 863.467 394.428 866.533 392.828C876.8 387.494 876.267 382.561 876.267 476.294C876.267 569.361 877.067 562.294 865.867 568.694C862.4 570.561 852.667 576.294 844.267 581.228C835.867 586.028 826.8 591.361 824.133 592.828C796 608.561 727.867 649.228 724.667 652.161C720.267 656.161 720.4 664.028 725.067 667.628C727.067 669.228 730.133 670.428 732 670.428C733.733 670.428 742.8 666.161 752.133 660.961C761.333 655.628 770.8 650.294 773.067 649.094C775.333 647.761 789.467 639.628 804.4 631.094C819.333 622.428 834.267 613.894 837.6 612.028C840.933 610.161 848.4 605.894 854.267 602.294C869.6 593.228 871.733 592.294 874.267 594.428C876 595.894 876.267 606.294 876.267 679.361C876.267 733.494 875.733 763.494 874.933 765.094C873.867 767.094 845.6 785.094 843.6 785.094C843.333 785.094 838.8 787.628 833.333 790.828C828 794.028 820.933 798.161 817.6 800.028C810.933 803.761 765.733 829.761 744.933 841.761C711.2 861.494 632.267 906.828 620.8 913.228C616.8 915.494 612.133 917.094 610.533 916.828C608 916.428 607.467 915.361 606.667 908.161C605.6 898.428 604.533 896.161 596.533 886.428C583.067 870.028 568 856.561 545.467 840.694C527.6 828.161 520.667 826.694 507.067 833.094L498.667 837.094L491.6 833.628C483.067 829.228 480.133 829.761 472.667 837.094C466.133 843.361 464.533 847.894 466.933 853.628C470.133 861.628 470.133 864.694 466.4 869.494C462.4 874.694 461.733 882.161 464.933 886.961C466.133 888.694 474 896.294 482.533 903.894C498.133 917.761 511.867 932.828 524.133 949.761C534 963.228 533.733 963.894 516.133 973.894C506.8 979.228 502 981.094 499.867 980.561C498.267 980.161 493.067 975.228 488.4 969.494C471.2 948.828 442.8 923.761 433.467 920.828C425.6 918.561 415.067 920.561 406.8 925.894C398.667 931.094 398 931.228 391.333 928.428C388.8 927.361 385.333 926.428 383.867 926.428C377.2 926.428 365.6 940.161 362.8 951.361C361.2 957.228 359.2 958.961 355.2 957.361C351.733 956.028 321.867 938.828 311.867 932.428C299.2 924.294 299.733 922.828 320.267 910.694C329.467 905.228 339.6 899.361 342.667 897.628C345.867 895.761 360.667 887.361 375.333 878.828C390.133 870.294 407.6 860.161 414.133 856.428C429.2 847.628 432.267 844.694 432.267 839.094C432.267 833.494 427.067 827.761 422 827.761C417.467 827.761 419.867 826.561 375.6 852.028C355.867 863.361 336.933 874.161 333.6 876.028C330.267 877.894 315.867 886.028 301.733 894.294C287.467 902.428 274.8 909.094 273.733 909.094C272.533 909.094 269.2 907.628 266.267 906.028C263.333 904.294 244.8 893.494 224.933 882.161C205.2 870.828 185.733 859.628 181.867 857.228C178 854.961 174.667 853.094 174.4 853.094C172.533 853.094 129.867 827.361 128.533 825.361C125.733 821.228 128 818.694 140.8 811.228C154.667 803.228 213.467 769.361 220.4 765.361C226.4 762.028 275.067 733.894 290.267 725.094C296.933 721.228 319.067 708.561 339.6 696.828C360.133 684.961 386.8 669.628 398.933 662.694C444.4 636.428 452 632.028 467.333 623.228C484.133 613.494 488.267 609.628 488.267 603.494C488.267 597.761 481.467 591.228 476.533 592.161C473.333 592.828 435.6 614.028 396.267 637.094C387.867 642.028 378.8 647.361 376.267 648.694C372.4 650.961 323.2 679.094 292.267 696.961C288.267 699.228 284 701.761 282.933 702.428C281.867 703.228 280 704.161 278.933 704.694C277.867 705.228 269.6 710.028 260.533 715.361C251.467 720.694 243.867 725.094 243.6 725.094C243.2 725.094 237.733 728.294 231.333 732.161C224.933 736.028 216.267 741.094 212.267 743.361C198.533 750.828 182.267 760.161 178.933 762.428C177.067 763.628 172.667 766.294 168.933 768.428C157.733 774.694 118.533 797.361 113.467 800.561C104 806.561 98.8 808.028 94.2667 806.161C86.4 802.961 27.6 768.828 25.3333 766.161C23.2 763.761 22.9333 759.628 22.9333 722.161C22.9333 696.428 23.4667 679.894 24.2667 678.294C26.1333 674.828 33.3333 670.428 81.8667 642.694C122.533 619.494 174.667 589.494 181.867 585.228C186 582.828 286.8 524.694 325.6 502.428C339.867 494.294 352.933 486.028 354.667 484.294C360.933 477.361 356.133 465.094 347.067 465.094C344.667 465.094 333.733 470.561 317.467 479.894C303.2 488.161 288.933 496.294 285.6 498.161C282.267 500.028 273.733 505.094 266.533 509.361C259.2 513.628 253.2 517.094 252.933 517.094C252.667 517.094 242.933 522.694 231.333 529.494C219.733 536.294 205.467 544.694 199.6 548.028C172 563.894 151.333 575.894 144.4 580.028C141.067 582.028 137.333 584.161 136.267 584.694C135.2 585.228 128.4 589.094 121.2 593.361C114 597.628 107.867 601.094 107.6 601.094C107.333 601.094 98 606.561 86.6667 613.228C59.0667 629.628 38 641.761 32 644.561C22.4 649.094 22.9333 653.628 22.9333 560.428C22.9333 483.361 23.0667 477.228 25.3333 474.561C27.0667 472.294 64.5333 449.094 66.2667 449.094C66.5333 449.094 72.8 445.494 80.2667 441.094C87.7333 436.694 94 433.094 94.2667 433.094C94.5333 433.094 102.133 428.694 111.2 423.228C120.133 417.894 130 412.161 132.933 410.561C135.867 409.094 139.467 406.961 140.933 406.028C145.867 402.961 192.8 375.761 211.6 365.094C213.867 363.894 223.2 358.428 232.267 353.094C241.467 347.761 254.267 340.294 260.667 336.561C275.6 328.028 278.933 324.828 278.933 318.828C278.933 313.094 274 307.761 268.667 307.761C264.667 307.761 262.8 308.828 229.333 328.161C216.933 335.228 196.933 346.828 184.667 354.028C172.267 361.094 160 368.294 157.333 370.028C154.533 371.628 152 373.094 151.6 373.094C151.333 373.094 144.533 376.961 136.667 381.628C128.667 386.294 119.867 391.494 116.933 393.094C114 394.694 104.667 400.028 96.2667 404.961C30.8 443.228 27.7333 444.828 25.0667 442.561C23.2 440.961 22.9333 432.428 22.9333 358.161C22.9333 304.161 23.4667 274.694 24.2667 272.961C25.3333 271.094 66.8 245.094 68.9333 245.094C69.2 245.094 75.4667 241.494 82.8 237.094C90.2667 232.694 96.5333 229.094 96.8 229.094C97.0667 229.094 103.2 225.628 110.533 221.361C117.733 217.094 126.667 211.894 130.267 209.894C136.933 206.161 157.733 194.028 186.933 176.961C195.333 172.028 204.667 166.694 207.6 165.094C218.4 159.094 266.4 131.228 271.2 128.161C274 126.561 276.4 125.094 276.667 125.094C276.933 125.094 285.6 120.161 295.733 114.294C305.867 108.294 316.933 101.894 320.267 100.028C323.6 98.1609 332 93.3609 338.933 89.3609C357.867 78.4275 361.6 77.7609 361.6 85.0942C361.6 89.6275 366.533 97.0942 370.933 99.3609C372.8 100.294 381.2 104.294 389.6 108.294C408.933 117.494 431.2 132.161 448.267 146.828C454.533 152.294 465.467 158.428 468.8 158.428C471.733 158.428 478.533 152.294 483.2 145.228C485.6 141.894 490.667 135.494 494.667 131.094C504.4 120.428 507.333 113.628 506.667 103.761C505.733 91.4942 494.667 75.4942 468 48.2942C458.667 38.6942 451.333 30.4275 451.867 30.0275C453.333 28.4275 454.933 28.9609 463.467 33.3609Z" fill="url(#paint0_linear_632_1719)"/>
<path d="M339.867 148.561C332.934 152.161 327.2 159.094 323.734 168.294C321.6 173.761 320.8 174.561 315.867 175.761C312.8 176.428 308.8 177.494 306.934 178.161C301.867 179.628 298.4 187.894 297.867 199.894C297.334 209.228 297.6 210.161 300.934 214.161C302.934 216.561 305.334 218.428 306.4 218.428C307.467 218.428 309.867 219.894 311.6 221.761C314.267 224.294 314.934 226.294 314.934 232.028C314.934 240.294 317.334 244.561 323.467 247.094C327.067 248.561 329.867 248.561 340.267 246.961C357.467 244.428 394 244.428 417.867 247.094C435.734 248.961 437.867 249.094 441.467 247.094C447.6 244.028 449.2 240.294 450.934 225.761C451.734 218.428 452.8 209.628 453.2 206.161C453.6 202.694 453.467 197.761 453.067 195.228C452 189.361 442.534 178.694 434.8 174.694C431.6 172.961 426.934 170.428 424.667 169.094C408.667 159.628 362.934 144.828 350.267 145.094C348.134 145.228 343.467 146.694 339.867 148.561Z" fill="url(#paint1_linear_632_1719)"/>
<path d="M408.934 281.094C400.134 281.494 388.4 282.694 382.934 283.627C369.6 286.027 339.467 295.627 335.467 298.827C329.067 303.761 326.4 311.227 325.867 326.027L325.334 339.627L320.934 342.294C314.934 345.894 313.067 352.294 315.734 360.961C318.667 371.094 322.534 378.827 326.134 382.294C329.067 385.094 330.134 385.227 337.334 384.427L345.334 383.494L350.267 390.027C360.667 403.761 365.6 403.227 386.267 386.427C401.467 374.027 420.934 362.027 443.2 351.094C460 342.827 464.8 339.894 466.934 336.427C470.4 330.827 470.267 327.761 466.4 320.027C464.667 316.561 461.334 308.961 459.067 302.961C452.934 287.094 443.467 279.494 430.667 280.027C427.467 280.161 417.734 280.694 408.934 281.094Z" fill="url(#paint2_linear_632_1719)"/>
<path d="M480.934 368.694C476.134 370.027 457.2 383.094 443.867 394.294C424.934 410.161 407.067 429.094 404.4 436.294C403.6 438.294 402.934 443.361 402.934 447.627C402.934 454.961 404.667 460.027 410.934 469.894C412.4 472.294 412.267 473.761 409.6 480.161C406.934 486.694 406.667 488.027 408.267 491.761C410.267 496.694 422 507.494 426.4 508.561C428.534 509.094 432 508.161 436.8 505.627L443.867 501.894L450 505.494C461.867 512.427 466.8 510.294 478.534 492.561C492.8 470.961 511.067 450.561 531.467 433.361C550 417.761 549.734 414.427 528.267 393.494C505.067 370.961 502.4 369.094 492.134 368.427C487.467 368.161 482.4 368.294 480.934 368.694Z" fill="url(#paint3_linear_632_1719)"/>
<path d="M571.2 459.094C553.867 466.961 514.8 507.361 503.467 529.228C500.933 534.428 501.467 548.428 504.8 556.961C506.933 562.561 506.933 562.828 504.133 567.494C499.867 574.828 500.4 580.161 506.267 587.094C511.733 593.894 515.467 594.694 523.467 590.828C528 588.694 528.267 588.694 533.467 592.161C539.733 596.294 546 596.828 551.2 593.361C553.2 592.161 561.867 585.361 570.533 578.294C591.867 560.961 612.533 547.894 624.267 544.428C632.267 542.028 644 535.228 646.133 531.761C650.4 524.294 649.067 520.694 633.867 500.028C620.533 481.894 605.867 466.161 598 461.494C590.667 457.228 577.733 456.028 571.2 459.094Z" fill="url(#paint4_linear_632_1719)"/>
<path d="M656.267 588.694C640.4 591.094 606.934 601.761 593.867 608.694C568.8 622.028 563.467 626.961 559.6 640.161C557.067 648.694 554.4 653.094 551.6 653.094C550.667 653.094 548.4 654.294 546.4 655.894C543.734 658.028 542.934 659.761 542.934 663.628C542.934 674.161 547.334 679.761 555.467 679.761C559.467 679.761 562.934 682.428 565.467 687.761C566.667 690.161 569.2 693.361 571.334 694.961C574.8 697.494 575.6 697.494 590 695.894C630.4 691.361 646.534 691.361 676 695.894C686.4 697.494 687.467 697.494 692 695.094C698.4 691.494 699.2 687.894 698.267 666.428C697.334 647.094 692.534 620.561 688.134 610.694C681.6 595.494 668.934 586.828 656.267 588.694Z" fill="url(#paint5_linear_632_1719)"/>
<path d="M578.267 732.961C571.867 734.561 566.667 737.761 560 744.294C554.133 750.161 553.6 750.428 547.867 749.628C542.667 748.828 541.467 749.228 537.733 752.561C534.667 755.361 533.2 758.028 532.667 761.894C532 766.694 532.533 767.894 537.333 773.361C542.267 779.094 542.533 779.894 542 786.028C540.933 796.028 544.4 799.094 570 811.494C592.4 822.428 617.333 838.428 632 851.094C639.333 857.628 640.933 858.428 646.267 858.428C650.933 858.428 653.067 857.628 656.133 854.694C661.333 850.028 669.333 834.828 678.533 812.028C686 793.761 686 793.761 686.133 779.094C686.267 767.494 685.733 763.494 683.867 760.161C678.667 750.561 671.6 746.561 650.533 741.228C624.667 734.561 588.533 730.428 578.267 732.961Z" fill="url(#paint6_linear_632_1719)"/>
<defs>
<linearGradient id="paint0_linear_632_1719" x1="184" y1="141" x2="676" y2="920" gradientUnits="userSpaceOnUse">
<stop offset="0.276" stop-color="#0CA7BD"/>
<stop offset="0.603645" stop-color="#21BEAA"/>
<stop offset="1" stop-color="#064D57"/>
</linearGradient>
<linearGradient id="paint1_linear_632_1719" x1="329.493" y1="159.156" x2="364.438" y2="255.139" gradientUnits="userSpaceOnUse">
<stop offset="0.276" stop-color="#0CA7BD"/>
<stop offset="0.603645" stop-color="#21BEAA"/>
<stop offset="1" stop-color="#064D57"/>
</linearGradient>
<linearGradient id="paint2_linear_632_1719" x1="346.201" y1="296.279" x2="391.402" y2="402.928" gradientUnits="userSpaceOnUse">
<stop offset="0.276" stop-color="#0CA7BD"/>
<stop offset="0.603645" stop-color="#21BEAA"/>
<stop offset="1" stop-color="#064D57"/>
</linearGradient>
<linearGradient id="paint3_linear_632_1719" x1="431.948" y1="387.442" x2="494.09" y2="501.66" gradientUnits="userSpaceOnUse">
<stop offset="0.276" stop-color="#0CA7BD"/>
<stop offset="0.603645" stop-color="#21BEAA"/>
<stop offset="1" stop-color="#064D57"/>
</linearGradient>
<linearGradient id="paint4_linear_632_1719" x1="531.359" y1="476.179" x2="590.564" y2="590.914" gradientUnits="userSpaceOnUse">
<stop offset="0.276" stop-color="#0CA7BD"/>
<stop offset="0.603645" stop-color="#21BEAA"/>
<stop offset="1" stop-color="#064D57"/>
</linearGradient>
<linearGradient id="paint5_linear_632_1719" x1="574.747" y1="603.204" x2="612.804" y2="702.728" gradientUnits="userSpaceOnUse">
<stop offset="0.276" stop-color="#0CA7BD"/>
<stop offset="0.603645" stop-color="#21BEAA"/>
<stop offset="1" stop-color="#064D57"/>
</linearGradient>
<linearGradient id="paint6_linear_632_1719" x1="563.851" y1="749.368" x2="613.496" y2="859.646" gradientUnits="userSpaceOnUse">
<stop offset="0.276" stop-color="#0CA7BD"/>
<stop offset="0.603645" stop-color="#21BEAA"/>
<stop offset="1" stop-color="#064D57"/>
</linearGradient>
</defs>
</svg>
