<svg width="34" height="34" viewBox="0 0 34 34" fill="none" xmlns="http://www.w3.org/2000/svg">
<path d="M17 17C19.4853 17 21.5 14.9853 21.5 12.5C21.5 10.0147 19.4853 8 17 8C14.5147 8 12.5 10.0147 12.5 12.5C12.5 14.9853 14.5147 17 17 17Z" stroke="#383838" stroke-width="2.3"/>
<path d="M25.955 29C25.715 24.662 24.3875 21.5 17 21.5C9.6125 21.5 8.285 24.662 8.045 29" stroke="#383838" stroke-width="2.3" stroke-linecap="round"/>
<path d="M9.5 4.00702C11.7792 2.68811 14.3667 1.99568 17 2.00002C25.2845 2.00002 32 8.71552 32 17C32 25.2845 25.2845 32 17 32C8.7155 32 2 25.2845 2 17C2 14.2685 2.7305 11.705 4.007 9.50002" stroke="#383838" stroke-width="2.3" stroke-linecap="round"/>
</svg>
